# xmcd
#
# Track frame offsets:
#	150
#	14390
#	30885
#	45992
#	59877
#	75552
#	89260
#	102477
#	116540
#	131132
#	145492
#	160412
#	175642
#	189920
#	205117
#	219385
#	234072
#	248937
#
# Disc length: 3575 seconds
#
# Revision: 0
# Processed by: cddbd v1.4PL0 Copyright (c) Steve Scherf et al.
# Submitted via: dBpowerAMP V4.0
#
DISCID=ec0df512
DTITLE=Bing Crosby - Pennies From Heaven
DYEAR=1900
DGENRE=Crooner
TTITLE0=I've Got The World on a String
TTITLE1=I Surrender
TTITLE2=Just a Gigolo
TTITLE3=I Found A Million Dollar Baby
TTITLE4=Just One More Chance
TTITLE5=Sweet And Lovely
TTITLE6=Where the Blue of the Night Meets the Gold of the Day
TTITLE7=Please
TTITLE8=How Deep is the Ocean
TTITLE9=Down the Old Ox Road
TTITLE10=Thanks
TTITLE11=Black Moonlight
TTITLE12=Temptation
TTITLE13=Did You Ever See a Dream Walking
TTITLE14=Love In Bloom
TTITLE15=June In January
TTITLE16=It's Easy to Remember
TTITLE17=Pennies from Heaven
EXTD=
EXTT0=
EXTT1=
EXTT2=
EXTT3=
EXTT4=
EXTT5=
EXTT6=
EXTT7=
EXTT8=
EXTT9=
EXTT10=
EXTT11=
EXTT12=
EXTT13=
EXTT14=
EXTT15=
EXTT16=
EXTT17=
PLAYORDER=
